# xmcd
#
# Track frame offsets:
# 150
# 10123
# 21586
# 33993
# 47563
# 58284
# 76654
# 86930
# 99908
# 113970
# 127622
# 139775
# 150949
# 163579
# 177599
# 188686
#
# Disc length: 2668 seconds
#
#
# Revision: 0
# Processed by: cddbd v1.5.2PL0 Copyright (c) Steve Scherf et al.
# Submitted via: FreeRIP 2.951 
#
DISCID=c20a6a10
DTITLE=cor sanne - grand ole country - time
DYEAR=2004
DGENRE=Country
TTITLE0=all over again
TTITLE1=a lie to my heart
TTITLE2=mama tried
TTITLE3=fraulein
TTITLE4=a fool such as I
TTITLE5=the lightning express
TTITLE6=memphis tennessee
TTITLE7=crazy arms
TTITLE8=suppertime
TTITLE9=right or wrong
TTITLE10=you win again
TTITLE11=blue days, black nights
TTITLE12=the way it was in 51
TTITLE13=your old loveletters
TTITLE14=a thing about trains
TTITLE15=time
EXTD=
EXTT0=
EXTT1=
EXTT2=
EXTT3=
EXTT4=
EXTT5=
EXTT6=
EXTT7=
EXTT8=
EXTT9=
EXTT10=
EXTT11=
EXTT12=
EXTT13=
EXTT14=
EXTT15=
PLAYORDER=
